<svg xmlns="http://www.w3.org/2000/svg" viewBox="0 0 1600 1000" width="1600" height="1000">
  <rect width="1600" height="1000" fill="#F7F9FC"/>
  <rect x="28" y="24" width="1544" height="88" rx="18" fill="#14213D"/>
  <circle cx="76" cy="68" r="22" fill="#35B9C7"/>
  <path d="M65 68h22M76 57v22" stroke="#FFFFFF" stroke-width="3" stroke-linecap="round"/>
  <text x="112" y="62" font-size="28" font-weight="700" fill="#FFFFFF" font-family="Arial, Noto Sans SC, sans-serif">Dev Memory Skill Suite</text>
  <text x="112" y="88" font-size="14" fill="#B9C5D8" font-family="Arial, Noto Sans SC, sans-serif">让 coding agent 在不同会话中恢复同一份 repo + branch 开发上下文</text>
  <rect x="1286" y="48" width="250" height="40" rx="20" fill="#243451" stroke="#49617F"/>
  <text x="1411" y="73" text-anchor="middle" font-size="13" font-weight="600" fill="#D9E5F2" font-family="Arial, Noto Sans SC, sans-serif">LOCAL-FIRST · GIT-AWARE</text>

  <text x="48" y="154" font-size="12" font-weight="700" fill="#718096" letter-spacing="2" font-family="Arial, Noto Sans SC, sans-serif">01  会话入口</text>
  <line x1="48" y1="164" x2="1552" y2="164" stroke="#D7DFEA"/>

  <rect x="48" y="188" width="310" height="166" rx="16" fill="#E9F3FF" stroke="#87B7E8" stroke-width="1.5"/>
  <circle cx="82" cy="222" r="18" fill="#337BBF"/>
  <path d="M74 222h16M82 214v16" stroke="#FFFFFF" stroke-width="2"/>
  <text x="112" y="218" font-size="17" font-weight="700" fill="#194B7A" font-family="Arial, Noto Sans SC, sans-serif">CLI 生命周期</text>
  <text x="112" y="240" font-size="12" fill="#4C6F91" font-family="Arial, Noto Sans SC, sans-serif">Claude Code / Codex CLI</text>
  <line x1="70" y1="258" x2="336" y2="258" stroke="#B9D6F1"/>
  <rect x="70" y="276" width="76" height="26" rx="13" fill="#FFFFFF" stroke="#87B7E8"/>
  <text x="108" y="294" text-anchor="middle" font-size="11" fill="#245B8E" font-family="Arial, Noto Sans SC, sans-serif">Start</text>
  <rect x="154" y="276" width="76" height="26" rx="13" fill="#FFFFFF" stroke="#87B7E8"/>
  <text x="192" y="294" text-anchor="middle" font-size="11" fill="#245B8E" font-family="Arial, Noto Sans SC, sans-serif">Stop</text>
  <rect x="238" y="276" width="88" height="26" rx="13" fill="#FFFFFF" stroke="#87B7E8"/>
  <text x="282" y="294" text-anchor="middle" font-size="11" fill="#245B8E" font-family="Arial, Noto Sans SC, sans-serif">SessionEnd</text>
  <text x="70" y="329" font-size="12" fill="#526E8A" font-family="Arial, Noto Sans SC, sans-serif">恢复上下文 · 记录 HEAD · 登记总结任务</text>

  <rect x="384" y="188" width="310" height="166" rx="16" fill="#E9F8F5" stroke="#70C7B5" stroke-width="1.5"/>
  <circle cx="418" cy="222" r="18" fill="#229B83"/>
  <rect x="410" y="214" width="16" height="16" rx="3" fill="none" stroke="#FFFFFF" stroke-width="2"/>
  <circle cx="418" cy="222" r="3" fill="#FFFFFF"/>
  <text x="448" y="218" font-size="17" font-weight="700" fill="#176B5A" font-family="Arial, Noto Sans SC, sans-serif">Codex 本机会话</text>
  <text x="448" y="240" font-size="12" fill="#4B7E74" font-family="Arial, Noto Sans SC, sans-serif">CLI 与 Desktop 共用 rollout JSONL</text>
  <line x1="406" y1="258" x2="672" y2="258" stroke="#B5DED5"/>
  <text x="406" y="282" font-size="12" fill="#315F57" font-family="ui-monospace, monospace">~/.codex/sessions/</text>
  <text x="406" y="304" font-size="12" fill="#315F57" font-family="ui-monospace, monospace">~/.codex/archived_sessions/</text>
  <text x="406" y="329" font-size="12" fill="#526E68" font-family="Arial, Noto Sans SC, sans-serif">03:00 / 13:00 · 活跃检测 · 增量游标</text>

  <rect x="720" y="188" width="832" height="166" rx="16" fill="#FFFFFF" stroke="#D4DDEA" stroke-width="1.5"/>
  <text x="746" y="218" font-size="13" font-weight="700" fill="#718096" letter-spacing="1.5" font-family="Arial, Noto Sans SC, sans-serif">统一处理流水线</text>
  <line x1="746" y1="232" x2="1526" y2="232" stroke="#E4E9F0"/>

  <circle cx="778" cy="278" r="22" fill="#337BBF"/>
  <text x="778" y="284" text-anchor="middle" font-size="14" font-weight="700" fill="#FFFFFF" font-family="Arial, sans-serif">1</text>
  <text x="812" y="273" font-size="13" font-weight="700" fill="#253858" font-family="Arial, Noto Sans SC, sans-serif">发现与路由</text>
  <text x="812" y="293" font-size="11" fill="#718096" font-family="Arial, Noto Sans SC, sans-serif">repo · branch · workspace</text>
  <line x1="946" y1="278" x2="980" y2="278" stroke="#97A6BA" stroke-width="2"/>
  <polygon points="980,278 970,272 970,284" fill="#97A6BA"/>

  <circle cx="1012" cy="278" r="22" fill="#229B83"/>
  <text x="1012" y="284" text-anchor="middle" font-size="14" font-weight="700" fill="#FFFFFF" font-family="Arial, sans-serif">2</text>
  <text x="1046" y="273" font-size="13" font-weight="700" fill="#253858" font-family="Arial, Noto Sans SC, sans-serif">全量语义提取</text>
  <text x="1046" y="293" font-size="11" fill="#718096" font-family="Arial, Noto Sans SC, sans-serif">user / assistant · 不截尾</text>
  <line x1="1190" y1="278" x2="1224" y2="278" stroke="#97A6BA" stroke-width="2"/>
  <polygon points="1224,278 1214,272 1214,284" fill="#97A6BA"/>

  <circle cx="1256" cy="278" r="22" fill="#8A5FD3"/>
  <text x="1256" y="284" text-anchor="middle" font-size="14" font-weight="700" fill="#FFFFFF" font-family="Arial, sans-serif">3</text>
  <text x="1290" y="273" font-size="13" font-weight="700" fill="#253858" font-family="Arial, Noto Sans SC, sans-serif">分块总结</text>
  <text x="1290" y="293" font-size="11" fill="#718096" font-family="Arial, Noto Sans SC, sans-serif">可配置 executor / model</text>
  <line x1="1404" y1="278" x2="1438" y2="278" stroke="#97A6BA" stroke-width="2"/>
  <polygon points="1438,278 1428,272 1428,284" fill="#97A6BA"/>

  <circle cx="1470" cy="278" r="22" fill="#E28A32"/>
  <text x="1470" y="284" text-anchor="middle" font-size="14" font-weight="700" fill="#FFFFFF" font-family="Arial, sans-serif">4</text>
  <rect x="1398" y="308" width="144" height="36" rx="4" fill="#FFF7EC" stroke="#E8C08E"/>
  <text x="1470" y="322" text-anchor="middle" font-size="11" font-weight="700" fill="#865B24" font-family="Arial, Noto Sans SC, sans-serif">校验落盘</text>
  <text x="1470" y="338" text-anchor="middle" font-size="9" fill="#9A7447" font-family="Arial, Noto Sans SC, sans-serif">append / rewrite / delete</text>

  <polyline points="358,270 372,270 372,382 874,382 874,402" fill="none" stroke="#337BBF" stroke-width="2"/>
  <polygon points="874,410 868,400 880,400" fill="#337BBF"/>
  <polyline points="694,270 706,270 706,382 874,382" fill="none" stroke="#229B83" stroke-width="2"/>

  <text x="48" y="406" font-size="12" font-weight="700" fill="#718096" letter-spacing="2" font-family="Arial, Noto Sans SC, sans-serif">02  记忆核心</text>
  <line x1="48" y1="416" x2="1552" y2="416" stroke="#D7DFEA"/>

  <rect x="48" y="438" width="1504" height="246" rx="20" fill="#17233A"/>
  <rect x="70" y="460" width="438" height="202" rx="16" fill="#22324E" stroke="#3D5274"/>
  <text x="94" y="492" font-size="12" font-weight="700" fill="#8FA7C6" letter-spacing="1.5" font-family="Arial, Noto Sans SC, sans-serif">BRANCH MEMORY · 工作上下文</text>
  <text x="94" y="528" font-size="19" font-weight="700" fill="#FFFFFF" font-family="Arial, Noto Sans SC, sans-serif">当前分支继续开发需要知道什么</text>
  <rect x="94" y="552" width="118" height="32" rx="8" fill="#2F4568"/>
  <text x="153" y="573" text-anchor="middle" font-size="12" fill="#DDE8F5" font-family="Arial, Noto Sans SC, sans-serif">overview</text>
  <rect x="222" y="552" width="118" height="32" rx="8" fill="#2F4568"/>
  <text x="281" y="573" text-anchor="middle" font-size="12" fill="#DDE8F5" font-family="Arial, Noto Sans SC, sans-serif">decisions</text>
  <rect x="350" y="552" width="118" height="32" rx="8" fill="#2F4568"/>
  <text x="409" y="573" text-anchor="middle" font-size="12" fill="#DDE8F5" font-family="Arial, Noto Sans SC, sans-serif">risks</text>
  <rect x="94" y="594" width="118" height="32" rx="8" fill="#2F4568"/>
  <text x="153" y="615" text-anchor="middle" font-size="12" fill="#DDE8F5" font-family="Arial, Noto Sans SC, sans-serif">glossary</text>
  <rect x="222" y="594" width="118" height="32" rx="8" fill="#2F4568"/>
  <text x="281" y="615" text-anchor="middle" font-size="12" fill="#DDE8F5" font-family="Arial, Noto Sans SC, sans-serif">file map</text>
  <rect x="350" y="594" width="118" height="32" rx="8" fill="#2F4568"/>
  <text x="409" y="615" text-anchor="middle" font-size="12" fill="#DDE8F5" font-family="Arial, Noto Sans SC, sans-serif">sources</text>
  <text x="94" y="650" font-size="11" fill="#91A7C2" font-family="Arial, Noto Sans SC, sans-serif">累积型 section ≤ 200 · 注入时 newest first</text>

  <rect x="532" y="460" width="438" height="202" rx="16" fill="#183F43" stroke="#33787D"/>
  <text x="556" y="492" font-size="12" font-weight="700" fill="#82D6D0" letter-spacing="1.5" font-family="Arial, Noto Sans SC, sans-serif">REPO MEMORY · 跨分支共享</text>
  <text x="556" y="528" font-size="19" font-weight="700" fill="#FFFFFF" font-family="Arial, Noto Sans SC, sans-serif">所有分支都长期成立的稳定知识</text>
  <rect x="556" y="552" width="178" height="50" rx="10" fill="#21555A"/>
  <text x="645" y="574" text-anchor="middle" font-size="12" font-weight="700" fill="#E0FAF7" font-family="Arial, Noto Sans SC, sans-serif">shared decisions</text>
  <text x="645" y="592" text-anchor="middle" font-size="10" fill="#9CD9D4" font-family="Arial, Noto Sans SC, sans-serif">通用规则与原因</text>
  <rect x="748" y="552" width="178" height="50" rx="10" fill="#21555A"/>
  <text x="837" y="574" text-anchor="middle" font-size="12" font-weight="700" fill="#E0FAF7" font-family="Arial, Noto Sans SC, sans-serif">long-term context</text>
  <text x="837" y="592" text-anchor="middle" font-size="10" fill="#9CD9D4" font-family="Arial, Noto Sans SC, sans-serif">术语与共享入口</text>
  <text x="556" y="632" font-size="11" fill="#8FCBC7" font-family="Arial, Noto Sans SC, sans-serif">每个共享 section ≤ 20 · 自动去重与收敛</text>

  <rect x="994" y="460" width="536" height="202" rx="16" fill="#3C3154" stroke="#69558D"/>
  <text x="1018" y="492" font-size="12" font-weight="700" fill="#C8B2ED" letter-spacing="1.5" font-family="Arial, Noto Sans SC, sans-serif">RECOVERY · 每次会话开始</text>
  <text x="1018" y="528" font-size="19" font-weight="700" fill="#FFFFFF" font-family="Arial, Noto Sans SC, sans-serif">高价值块前置，完整文件路径兜底</text>
  <polyline points="1034,570 1080,570 1080,612 1126,612" fill="none" stroke="#B89BE5" stroke-width="2"/>
  <circle cx="1034" cy="570" r="8" fill="#8A5FD3"/>
  <circle cx="1126" cy="612" r="8" fill="#8A5FD3"/>
  <text x="1094" y="562" font-size="11" fill="#E6DDF5" font-family="Arial, Noto Sans SC, sans-serif">file_map · read_first_dirs</text>
  <text x="1144" y="616" font-size="11" fill="#E6DDF5" font-family="Arial, Noto Sans SC, sans-serif">shared → branch → paths</text>
  <text x="1018" y="650" font-size="11" fill="#BBAAD6" font-family="Arial, Noto Sans SC, sans-serif">截断内容始终附带 ↪ 完整文件定位</text>

  <text x="48" y="730" font-size="12" font-weight="700" fill="#718096" letter-spacing="2" font-family="Arial, Noto Sans SC, sans-serif">03  能力入口</text>
  <line x1="48" y1="740" x2="1552" y2="740" stroke="#D7DFEA"/>

  <rect x="48" y="760" width="470" height="122" rx="16" fill="#FFFFFF" stroke="#9DC7A7" stroke-width="1.5"/>
  <rect x="48" y="760" width="8" height="122" rx="4" fill="#399A5C"/>
  <text x="78" y="792" font-size="15" font-weight="700" fill="#286E43" font-family="Arial, Noto Sans SC, sans-serif">dev-memory-read</text>
  <text x="78" y="817" font-size="12" fill="#546779" font-family="Arial, Noto Sans SC, sans-serif">定位、搜索、重读权威记忆</text>
  <text x="78" y="850" font-size="11" fill="#7A8795" font-family="Arial, Noto Sans SC, sans-serif">唯一常驻 Skill · repo / branch / archive</text>

  <rect x="565" y="760" width="470" height="122" rx="16" fill="#FFFFFF" stroke="#79C8B4" stroke-width="1.5"/>
  <rect x="565" y="760" width="8" height="122" rx="4" fill="#229B83"/>
  <text x="595" y="792" font-size="15" font-weight="700" fill="#176B5A" font-family="Arial, Noto Sans SC, sans-serif">session-scan</text>
  <text x="595" y="817" font-size="12" fill="#546779" font-family="Arial, Noto Sans SC, sans-serif">完整会话后台总结、纠错与结构化落盘</text>
  <text x="595" y="850" font-size="11" fill="#7A8795" font-family="Arial, Noto Sans SC, sans-serif">append · rewrite · delete · explicit skip</text>

  <rect x="1082" y="760" width="470" height="122" rx="16" fill="#FFFFFF" stroke="#D0B2E7" stroke-width="1.5"/>
  <rect x="1082" y="760" width="8" height="122" rx="4" fill="#8A5FD3"/>
  <text x="1112" y="792" font-size="15" font-weight="700" fill="#66419B" font-family="Arial, Noto Sans SC, sans-serif">maintain tidy / archive</text>
  <text x="1112" y="817" font-size="12" fill="#546779" font-family="Arial, Noto Sans SC, sans-serif">按需启动独立 Agent，临时注入维护流程</text>
  <text x="1112" y="850" font-size="11" fill="#7A8795" font-family="Arial, Noto Sans SC, sans-serif">review gate · backup · promotion · archive</text>

  <rect x="48" y="908" width="1504" height="60" rx="14" fill="#EEF2F7" stroke="#D3DCE8"/>
  <circle cx="78" cy="938" r="10" fill="#337BBF"/>
  <text x="98" y="943" font-size="12" fill="#40536A" font-family="Arial, Noto Sans SC, sans-serif">Git 保存代码与历史</text>
  <circle cx="324" cy="938" r="10" fill="#229B83"/>
  <text x="344" y="943" font-size="12" fill="#40536A" font-family="Arial, Noto Sans SC, sans-serif">dev-memory 保存 why / caveat / rule / source</text>
  <circle cx="742" cy="938" r="10" fill="#8A5FD3"/>
  <text x="762" y="943" font-size="12" fill="#40536A" font-family="Arial, Noto Sans SC, sans-serif">本地存储，不污染工作区</text>
  <circle cx="1056" cy="938" r="10" fill="#D69A28"/>
  <text x="1076" y="943" font-size="12" fill="#40536A" font-family="Arial, Noto Sans SC, sans-serif">扫描与 token 全链路可审计</text>
</svg>
