<svg xmlns="http://www.w3.org/2000/svg" viewBox="0 0 1600 1080" width="1600" height="1080">
  <rect x="0" y="0" width="1600" height="1080" fill="#F4F7FB"/>
  <rect x="48" y="32" width="1504" height="112" rx="6" fill="#15233E"/>
  <circle cx="96" cy="88" r="25" fill="#32B9C8"/>
  <path d="M84 78 H108 V98 H84 Z M84 84 H108" fill="none" stroke="#FFFFFF" stroke-width="2.5" stroke-linejoin="round"/>
  <text x="140" y="82" font-size="30" font-weight="700" fill="#FFFFFF" font-family="Arial, Noto Sans SC, sans-serif">Storage · 本地双层记忆与扫描账本</text>
  <text x="140" y="111" font-size="15" fill="#B7C5D9" font-family="Arial, Noto Sans SC, sans-serif">repo 共享稳定知识，branch 保留执行上下文，审计数据独立存放</text>
  <rect x="1284" y="62" width="220" height="50" rx="25" fill="#243858" stroke="#476181"/>
  <text x="1394" y="92" text-anchor="middle" font-size="13" font-weight="700" fill="#DCE8F5" font-family="Arial, Noto Sans SC, sans-serif">LOCAL-FIRST · PORTABLE</text>

  <text x="68" y="190" font-size="13" font-weight="700" fill="#71839A" font-family="Arial, Noto Sans SC, sans-serif">01 仓库身份归一</text>
  <line x1="68" y1="202" x2="1532" y2="202" stroke="#D5DFEA"/>

  <rect x="68" y="228" width="420" height="166" rx="6" fill="#EAF3FF" stroke="#72AEE8" stroke-width="2"/>
  <circle cx="108" cy="270" r="21" fill="#337FC4"/>
  <text x="108" y="276" text-anchor="middle" font-size="14" font-weight="700" fill="#FFFFFF" font-family="Arial, sans-serif">1</text>
  <text x="144" y="266" font-size="18" font-weight="700" fill="#174D7A" font-family="Arial, Noto Sans SC, sans-serif">识别 Git 仓库</text>
  <text x="144" y="291" font-size="13" fill="#5A7691" font-family="Arial, Noto Sans SC, sans-serif">优先读取 remote identity，不依赖本地目录名</text>
  <line x1="94" y1="316" x2="462" y2="316" stroke="#BBD7F2"/>
  <rect x="94" y="336" width="168" height="34" rx="4" fill="#FFFFFF" stroke="#A5C9EA"/>
  <rect x="276" y="336" width="186" height="34" rx="4" fill="#FFFFFF" stroke="#A5C9EA"/>
  <text x="178" y="358" text-anchor="middle" font-size="11" fill="#426E98" font-family="ui-monospace, monospace">remote URL</text>
  <text x="369" y="358" text-anchor="middle" font-size="11" fill="#426E98" font-family="ui-monospace, monospace">workspace path fallback</text>

  <line x1="488" y1="311" x2="548" y2="311" stroke="#7F93AA" stroke-width="2"/>
  <path d="M548 304 L560 311 L548 318 Z" fill="#7F93AA"/>

  <rect x="566" y="228" width="420" height="166" rx="6" fill="#E8F8F4" stroke="#55BBA6" stroke-width="2"/>
  <circle cx="606" cy="270" r="21" fill="#21A184"/>
  <text x="606" y="276" text-anchor="middle" font-size="14" font-weight="700" fill="#FFFFFF" font-family="Arial, sans-serif">2</text>
  <text x="642" y="266" font-size="18" font-weight="700" fill="#176B5C" font-family="Arial, Noto Sans SC, sans-serif">计算稳定 key</text>
  <text x="642" y="291" font-size="13" fill="#557F77" font-family="Arial, Noto Sans SC, sans-serif">同一远端仓库映射到同一个 repo-key</text>
  <line x1="592" y1="316" x2="960" y2="316" stroke="#B3DDD4"/>
  <rect x="592" y="336" width="368" height="34" rx="4" fill="#FFFFFF" stroke="#9ED3C8"/>
  <text x="776" y="358" text-anchor="middle" font-size="12" fill="#357565" font-family="ui-monospace, monospace">repo-key + branch-key</text>

  <line x1="986" y1="311" x2="1046" y2="311" stroke="#7F93AA" stroke-width="2"/>
  <path d="M1046 304 L1058 311 L1046 318 Z" fill="#7F93AA"/>

  <rect x="1064" y="228" width="468" height="166" rx="6" fill="#F2ECFC" stroke="#9B72D8" stroke-width="2"/>
  <circle cx="1104" cy="270" r="21" fill="#8455CF"/>
  <text x="1104" y="276" text-anchor="middle" font-size="14" font-weight="700" fill="#FFFFFF" font-family="Arial, sans-serif">3</text>
  <text x="1140" y="266" font-size="18" font-weight="700" fill="#5E369E" font-family="Arial, Noto Sans SC, sans-serif">落到统一根目录</text>
  <text x="1140" y="291" font-size="13" fill="#77658F" font-family="Arial, Noto Sans SC, sans-serif">多个 clone / worktree 共享 repo 层，分支层隔离</text>
  <line x1="1090" y1="316" x2="1506" y2="316" stroke="#D4C3ED"/>
  <rect x="1090" y="336" width="416" height="34" rx="4" fill="#FFFFFF" stroke="#C5AFE6"/>
  <text x="1298" y="358" text-anchor="middle" font-size="12" fill="#694895" font-family="ui-monospace, monospace">~/.dev-memory/repos/&lt;repo-key&gt;/</text>

  <text x="68" y="444" font-size="13" font-weight="700" fill="#71839A" font-family="Arial, Noto Sans SC, sans-serif">02 记忆主存储</text>
  <rect x="68" y="464" width="1464" height="354" rx="6" fill="#17263F"/>
  <text x="98" y="496" font-size="12" font-weight="700" fill="#AABCD2" font-family="ui-monospace, monospace">~/.dev-memory/repos/&lt;repo-key&gt;/</text>

  <rect x="98" y="516" width="892" height="274" rx="6" fill="#EAF8F2" stroke="#62B693" stroke-width="2"/>
  <rect x="98" y="516" width="10" height="274" rx="5" fill="#2D9E6B"/>
  <text x="130" y="550" font-size="16" font-weight="700" fill="#226B4D" font-family="Arial, Noto Sans SC, sans-serif">branches/&lt;branch-key&gt;/ · 分支独有上下文</text>
  <text x="130" y="574" font-size="12" fill="#638177" font-family="Arial, Noto Sans SC, sans-serif">每个分支独立恢复；累积型语义 section 默认最多 200 条</text>

  <rect x="130" y="598" width="196" height="54" rx="4" fill="#FFFFFF" stroke="#A8D4C0"/>
  <rect x="340" y="598" width="196" height="54" rx="4" fill="#FFFFFF" stroke="#A8D4C0"/>
  <rect x="550" y="598" width="196" height="54" rx="4" fill="#FFFFFF" stroke="#A8D4C0"/>
  <rect x="760" y="598" width="196" height="54" rx="4" fill="#FFFFFF" stroke="#A8D4C0"/>
  <text x="228" y="621" text-anchor="middle" font-size="12" font-weight="700" fill="#315F4B" font-family="ui-monospace, monospace">overview.md</text>
  <text x="228" y="639" text-anchor="middle" font-size="10" fill="#759083" font-family="Arial, Noto Sans SC, sans-serif">目标 · 范围 · 约束</text>
  <text x="438" y="621" text-anchor="middle" font-size="12" font-weight="700" fill="#315F4B" font-family="ui-monospace, monospace">progress.md</text>
  <text x="438" y="639" text-anchor="middle" font-size="10" fill="#759083" font-family="Arial, Noto Sans SC, sans-serif">Git 导航 · file map</text>
  <text x="648" y="621" text-anchor="middle" font-size="12" font-weight="700" fill="#315F4B" font-family="ui-monospace, monospace">decisions.md</text>
  <text x="648" y="639" text-anchor="middle" font-size="10" fill="#759083" font-family="Arial, Noto Sans SC, sans-serif">决策及原因</text>
  <text x="858" y="621" text-anchor="middle" font-size="12" font-weight="700" fill="#315F4B" font-family="ui-monospace, monospace">risks.md</text>
  <text x="858" y="639" text-anchor="middle" font-size="10" fill="#759083" font-family="Arial, Noto Sans SC, sans-serif">风险 · caveat</text>

  <rect x="130" y="668" width="196" height="54" rx="4" fill="#FFFFFF" stroke="#A8D4C0"/>
  <rect x="340" y="668" width="196" height="54" rx="4" fill="#FFFFFF" stroke="#A8D4C0"/>
  <rect x="550" y="668" width="196" height="54" rx="4" fill="#FFFFFF" stroke="#A8D4C0"/>
  <rect x="760" y="668" width="196" height="54" rx="4" fill="#FFFFFF" stroke="#A8D4C0"/>
  <text x="228" y="691" text-anchor="middle" font-size="12" font-weight="700" fill="#315F4B" font-family="ui-monospace, monospace">glossary.md</text>
  <text x="228" y="709" text-anchor="middle" font-size="10" fill="#759083" font-family="Arial, Noto Sans SC, sans-serif">上下文 · 资料入口</text>
  <text x="438" y="691" text-anchor="middle" font-size="12" font-weight="700" fill="#315F4B" font-family="ui-monospace, monospace">unsorted.md</text>
  <text x="438" y="709" text-anchor="middle" font-size="10" fill="#759083" font-family="Arial, Noto Sans SC, sans-serif">待人工分类</text>
  <text x="648" y="691" text-anchor="middle" font-size="11" font-weight="700" fill="#315F4B" font-family="ui-monospace, monospace">pending-promotion.md</text>
  <text x="648" y="709" text-anchor="middle" font-size="10" fill="#759083" font-family="Arial, Noto Sans SC, sans-serif">跨分支候选</text>
  <text x="858" y="691" text-anchor="middle" font-size="12" font-weight="700" fill="#315F4B" font-family="ui-monospace, monospace">manifest.json</text>
  <text x="858" y="709" text-anchor="middle" font-size="10" fill="#759083" font-family="Arial, Noto Sans SC, sans-serif">HEAD · scope metadata</text>

  <rect x="130" y="738" width="406" height="32" rx="4" fill="#DDF1E8" stroke="#9ECDB8"/>
  <rect x="550" y="738" width="196" height="32" rx="4" fill="#DDF1E8" stroke="#9ECDB8"/>
  <rect x="760" y="738" width="196" height="32" rx="4" fill="#DDF1E8" stroke="#9ECDB8"/>
  <text x="333" y="759" text-anchor="middle" font-size="11" fill="#487060" font-family="ui-monospace, monospace">_archived/&lt;branch&gt;/ · INDEX.md</text>
  <text x="648" y="759" text-anchor="middle" font-size="11" fill="#487060" font-family="ui-monospace, monospace">log.md</text>
  <text x="858" y="759" text-anchor="middle" font-size="11" fill="#487060" font-family="ui-monospace, monospace">artifacts/history/</text>

  <rect x="1016" y="516" width="488" height="274" rx="6" fill="#EAF4FA" stroke="#69A7C7" stroke-width="2"/>
  <rect x="1016" y="516" width="10" height="274" rx="5" fill="#287DAE"/>
  <text x="1048" y="550" font-size="16" font-weight="700" fill="#245E82" font-family="Arial, Noto Sans SC, sans-serif">repo/ · 跨分支共享层</text>
  <text x="1048" y="574" font-size="12" fill="#668093" font-family="Arial, Noto Sans SC, sans-serif">长期稳定知识；共享语义 section 最多 20 条</text>
  <rect x="1048" y="598" width="204" height="62" rx="4" fill="#FFFFFF" stroke="#A6CBE0"/>
  <rect x="1266" y="598" width="206" height="62" rx="4" fill="#FFFFFF" stroke="#A6CBE0"/>
  <rect x="1048" y="674" width="204" height="62" rx="4" fill="#FFFFFF" stroke="#A6CBE0"/>
  <rect x="1266" y="674" width="206" height="62" rx="4" fill="#FFFFFF" stroke="#A6CBE0"/>
  <text x="1150" y="623" text-anchor="middle" font-size="12" font-weight="700" fill="#315D76" font-family="ui-monospace, monospace">overview.md</text>
  <text x="1150" y="643" text-anchor="middle" font-size="10" fill="#728A99" font-family="Arial, Noto Sans SC, sans-serif">长期目标 · 共享约束</text>
  <text x="1369" y="623" text-anchor="middle" font-size="12" font-weight="700" fill="#315D76" font-family="ui-monospace, monospace">decisions.md</text>
  <text x="1369" y="643" text-anchor="middle" font-size="10" fill="#728A99" font-family="Arial, Noto Sans SC, sans-serif">跨分支通用决策</text>
  <text x="1150" y="699" text-anchor="middle" font-size="12" font-weight="700" fill="#315D76" font-family="ui-monospace, monospace">glossary.md</text>
  <text x="1150" y="719" text-anchor="middle" font-size="10" fill="#728A99" font-family="Arial, Noto Sans SC, sans-serif">长期背景 · 共享入口</text>
  <text x="1369" y="699" text-anchor="middle" font-size="12" font-weight="700" fill="#315D76" font-family="ui-monospace, monospace">manifest.json</text>
  <text x="1369" y="719" text-anchor="middle" font-size="10" fill="#728A99" font-family="Arial, Noto Sans SC, sans-serif">repo identity · visits</text>
  <rect x="1048" y="750" width="204" height="28" rx="4" fill="#DDECF4" stroke="#A4C5D8"/>
  <rect x="1266" y="750" width="206" height="28" rx="4" fill="#DDECF4" stroke="#A4C5D8"/>
  <text x="1150" y="769" text-anchor="middle" font-size="10" fill="#4F7185" font-family="ui-monospace, monospace">log.md</text>
  <text x="1369" y="769" text-anchor="middle" font-size="10" fill="#4F7185" font-family="ui-monospace, monospace">artifacts/</text>

  <text x="68" y="862" font-size="13" font-weight="700" fill="#71839A" font-family="Arial, Noto Sans SC, sans-serif">03 Codex 会话与扫描审计</text>
  <line x1="68" y1="874" x2="1532" y2="874" stroke="#D5DFEA"/>

  <rect x="68" y="898" width="400" height="130" rx="6" fill="#FFFFFF" stroke="#778CA5" stroke-width="2"/>
  <rect x="68" y="898" width="10" height="130" rx="5" fill="#50657E"/>
  <text x="100" y="928" font-size="14" font-weight="700" fill="#344B64" font-family="Arial, Noto Sans SC, sans-serif">原始会话 · source of truth</text>
  <text x="100" y="956" font-size="11" fill="#61778D" font-family="ui-monospace, monospace">~/.codex/sessions/YYYY/MM/DD/rollout-*.jsonl</text>
  <text x="100" y="980" font-size="11" fill="#61778D" font-family="ui-monospace, monospace">~/.codex/archived_sessions/</text>
  <rect x="100" y="994" width="336" height="20" rx="10" fill="#EEF2F6"/>
  <text x="268" y="1008" text-anchor="middle" font-size="9" fill="#687C90" font-family="Arial, Noto Sans SC, sans-serif">扫描器按字节游标增量发现尚未处理内容</text>

  <line x1="468" y1="963" x2="508" y2="963" stroke="#7F93AA" stroke-width="2"/>
  <path d="M508 956 L520 963 L508 970 Z" fill="#7F93AA"/>

  <rect x="526" y="898" width="656" height="130" rx="6" fill="#FFF7E8" stroke="#DEA441" stroke-width="2"/>
  <rect x="526" y="898" width="10" height="130" rx="5" fill="#DE961C"/>
  <text x="558" y="928" font-size="14" font-weight="700" fill="#865B16" font-family="Arial, Noto Sans SC, sans-serif">~/.dev-memory/jobs/session-scan/ · 全链路账本</text>
  <rect x="558" y="946" width="116" height="30" rx="4" fill="#FFFFFF" stroke="#E7C888"/>
  <rect x="686" y="946" width="116" height="30" rx="4" fill="#FFFFFF" stroke="#E7C888"/>
  <rect x="814" y="946" width="116" height="30" rx="4" fill="#FFFFFF" stroke="#E7C888"/>
  <rect x="942" y="946" width="116" height="30" rx="4" fill="#FFFFFF" stroke="#E7C888"/>
  <rect x="1070" y="946" width="80" height="30" rx="4" fill="#FFFFFF" stroke="#E7C888"/>
  <text x="616" y="966" text-anchor="middle" font-size="10" fill="#866528" font-family="ui-monospace, monospace">state/</text>
  <text x="744" y="966" text-anchor="middle" font-size="10" fill="#866528" font-family="ui-monospace, monospace">sessions/</text>
  <text x="872" y="966" text-anchor="middle" font-size="10" fill="#866528" font-family="ui-monospace, monospace">runs/</text>
  <text x="1000" y="966" text-anchor="middle" font-size="10" fill="#866528" font-family="ui-monospace, monospace">logs/</text>
  <text x="1110" y="966" text-anchor="middle" font-size="10" fill="#866528" font-family="ui-monospace, monospace">events</text>
  <text x="558" y="1002" font-size="10" fill="#8A6E3B" font-family="Arial, Noto Sans SC, sans-serif">候选、处理游标、原始大小、分块、每次 token 用量、跳过原因、内部会话排除表</text>

  <line x1="1182" y1="963" x2="1222" y2="963" stroke="#7F93AA" stroke-width="2"/>
  <path d="M1222 956 L1234 963 L1222 970 Z" fill="#7F93AA"/>

  <rect x="1240" y="898" width="292" height="130" rx="6" fill="#F2ECFC" stroke="#9B72D8" stroke-width="2"/>
  <rect x="1240" y="898" width="10" height="130" rx="5" fill="#8455CF"/>
  <text x="1272" y="928" font-size="14" font-weight="700" fill="#5E369E" font-family="Arial, Noto Sans SC, sans-serif">仓库级总结任务</text>
  <text x="1272" y="956" font-size="10" fill="#755E91" font-family="ui-monospace, monospace">repos/&lt;repo-key&gt;/jobs/</text>
  <text x="1272" y="977" font-size="10" fill="#755E91" font-family="ui-monospace, monospace">session-summary/</text>
  <rect x="1272" y="992" width="228" height="22" rx="11" fill="#FFFFFF" stroke="#CBB7E7"/>
  <text x="1386" y="1007" text-anchor="middle" font-size="9" fill="#735A91" font-family="Arial, Noto Sans SC, sans-serif">按 repo 路由并校验写入</text>

  <rect x="68" y="1042" width="1464" height="24" rx="6" fill="#E8EEF5" stroke="#CBD7E3"/>
  <text x="800" y="1059" text-anchor="middle" font-size="10" fill="#576B7F" font-family="Arial, Noto Sans SC, sans-serif">扫描审计只保存路径、哈希、字节范围和结构化摘要，不复制完整会话原文</text>
</svg>
